<svg xmlns="http://www.w3.org/2000/svg" xmlns:xlink="http://www.w3.org/1999/xlink" version="1.1">
	<symbol id="square" viewBox="0 0 512 512">
		<path d="M492,352c11.046,0,20-8.954,20-20V80c0-44.112-35.888-80-80-80H80C35.888,0,0,35.888,0,80v352c0,44.112,35.888,80,80,80    h352c44.112,0,80-35.888,80-80c0-11.046-8.954-20-20-20c-11.046,0-20,8.954-20,20c0,22.056-17.944,40-40,40H80    c-22.056,0-40-17.944-40-40V80c0-22.056,17.944-40,40-40h352c22.056,0,40,17.944,40,40v252C472,343.046,480.954,352,492,352z"/>
	</symbol>

	<symbol id="check" viewBox="0 0 512 512" >
		<path d="M504.527,67.909c-8.611-6.92-21.2-5.547-28.118,3.063L210.291,402.169c-3.612,3.863-8.494,6.101-13.797,6.314    c-5.459,0.22-10.629-1.73-14.523-5.431L33.839,261.061c-7.975-7.643-20.634-7.374-28.278,0.599    c-7.643,7.974-7.375,20.634,0.599,28.278l148.191,142.048c11.26,10.703,25.83,16.515,41.268,16.515    c0.825,0,1.655-0.017,2.484-0.051c16.352-0.657,31.371-7.734,42.288-19.926c0.237-0.265,0.467-0.537,0.691-0.814L507.59,96.027    C514.508,87.416,513.137,74.828,504.527,67.909z"/>
	</symbol>

  <symbol id="remove" viewBox="0 0 512 512">
    <path d="m256 512c-141.160156 0-256-114.839844-256-256s114.839844-256 256-256 256 114.839844 256 256-114.839844 256-256 256zm0-475.429688c-120.992188 0-219.429688 98.4375-219.429688 219.429688s98.4375 219.429688 219.429688 219.429688 219.429688-98.4375 219.429688-219.429688-98.4375-219.429688-219.429688-219.429688zm0 0"/>
    <path d="m347.429688 365.714844c-4.679688 0-9.359376-1.785156-12.929688-5.359375l-182.855469-182.855469c-7.144531-7.144531-7.144531-18.714844 0-25.855469 7.140625-7.140625 18.714844-7.144531 25.855469 0l182.855469 182.855469c7.144531 7.144531 7.144531 18.714844 0 25.855469-3.570313 3.574219-8.246094 5.359375-12.925781 5.359375zm0 0"/>
    <path d="m164.570312 365.714844c-4.679687 0-9.355468-1.785156-12.925781-5.359375-7.144531-7.140625-7.144531-18.714844 0-25.855469l182.855469-182.855469c7.144531-7.144531 18.714844-7.144531 25.855469 0 7.140625 7.140625 7.144531 18.714844 0 25.855469l-182.855469 182.855469c-3.570312 3.574219-8.25 5.359375-12.929688 5.359375zm0 0"/>
  </symbol>
</svg>